# xmcd CD database file
#
# Track frame offsets:
#	150
#	24331
#	48812
#	74705
#	96552
#	128084
#	154480
#	175581
#	202532
#	226314
#
# Disc length: 3366 seconds
#
# Revision: 0
# Processed by: cddbd v1.5.2PL0 Copyright (c) Steve Scherf et al.
# Submitted via: CDex 1.70beta3
#
DISCID=7d0d240a
DTITLE=MARLENE - MARLENE  sings Donna Summer
DYEAR=2013
DGENRE=Jazz
TTITLE0=I Love You
TTITLE1=Melody Of Love (Wanna Be Loved)
TTITLE2=Hot Stuff
TTITLE3=On The Radio
TTITLE4=MacArthur Park
TTITLE5=Heaven Knows
TTITLE6=She Works Hard For The Money
TTITLE7=Bad Birls
TTITLE8=Last Dance
TTITLE9=I Will Go With You (Con Te Partiro)
EXTD=YEAR: 2013
EXTT0=
EXTT1=
EXTT2=
EXTT3=
EXTT4=
EXTT5=
EXTT6=
EXTT7=
EXTT8=
EXTT9=
PLAYORDER=
